# xmcd
#
# Track frame offsets: 
#        150
#        16311
#        34483
#        50432
#        71941
#        90655
#        108950
#        127839
#        147453
#        163957
#        182238
#
# Disc length: 2636 seconds
#
# Revision: 0
# Processed by: cddbd v1.5.2PL0 Copyright (c) Steve Scherf et al.
# Submitted via: ExactAudioCopyFreeDBPlugin 1.0
#
DISCID=9f0a4a0b
DTITLE=Jordan Trotter - Jordan Trotter
DYEAR=2008
DGENRE=Country
TTITLE0=I Want You
TTITLE1=Gave Her Wings
TTITLE2=It Matters To Me
TTITLE3=Bonnie and James
TTITLE4=Car On A Hill
TTITLE5=Ain't Enough
TTITLE6=The Wind Cries Mary
TTITLE7=Magia De La Luna
TTITLE8=Chain Of Fools
TTITLE9=Angels By My Side
TTITLE10=Hickory Wind
EXTD=
EXTT0=
EXTT1=
EXTT2=
EXTT3=
EXTT4=
EXTT5=
EXTT6=
EXTT7=
EXTT8=
EXTT9=
EXTT10=
PLAYORDER=
